<svg xmlns="http://www.w3.org/2000/svg" viewBox="0 0 120 132" fill="none" role="img" aria-label="Freya">
  <title>Freya</title>
  <!-- Calligraphic lowercase f from brand artwork; accent wisp + main stroke (#343D4B) -->
  <path
    stroke="#343D4B"
    stroke-width="2.25"
    stroke-linecap="round"
    stroke-linejoin="round"
    fill="none"
    d="M14 34 C26 24 48 20 66 27"
  />
  <path
    fill="#343D4B"
    fill-rule="evenodd"
    d="M101 46.5 C106.8 41.4 114.2 43.6 117.6 51.2 C120.4 57.6 117.8 65.6 111.4 69.4 C104.6 73.6 94.8 72.8 87.6 67.8 C82.8 64.4 79.8 67.4 79.4 73.2 C77.8 93.6 71.6 114.8 54.8 124.8 C46.8 129.6 34.8 128.6 27.8 120.8 C20.6 112.8 23.6 97.6 34.8 85.8 C41.8 77.8 52.6 69.8 62.8 63.8 C54.8 53.8 47.8 37.8 52.8 23.8 C56.8 12.8 71.8 6.8 85.8 11.8 C103.8 18.8 114.8 39.8 107.8 54.8 C104.8 61.8 96.8 66.8 88.8 65.8 C82.8 65 78.8 60.8 77.8 54.8 C76.8 49.8 79.8 44.8 84.8 43.8 C90.8 42.6 96.8 43.8 101 46.5 Z M48 100.8 C54.8 89.8 69.8 92.8 69.8 106.8 C69.8 117.8 58.8 124.8 49.8 119.8 C43.8 116.8 43.8 107.8 48 100.8 Z"
  />
</svg>
